<svg viewBox="0 0 1024 1024" width="1024" height="1024" x="0" y="0" xmlns="http://www.w3.org/2000/svg"><defs><pattern id="pattern" x="0" y="0" width="8" height="8" patternUnits="userSpaceOnUse"><polygon points="0,4 0,8 8,0 4,0" fill="#ffffff"></polygon><polygon points="4,8 8,8 8,4" fill="#ffffff"></polygon></pattern><mask id="grating" x="0" y="0" width="1" height="1"><rect x="0" y="0" width="100%" height="100%" fill="url(#pattern)"></rect></mask></defs><g id="horizStripes"><rect fill="#006818" height="16" width="100%" x="0" y="0"></rect><rect fill="#FCFCFC" height="16" width="100%" x="0" y="16"></rect><rect fill="#289C18" height="16" width="100%" x="0" y="32"></rect><rect fill="#FCFCFC" height="32" width="100%" x="0" y="48"></rect><rect fill="#289C18" height="64" width="100%" x="0" y="80"></rect><rect fill="#006818" height="80" width="100%" x="0" y="144"></rect><rect fill="#E8C000" height="16" width="100%" x="0" y="224"></rect><rect fill="#101010" height="112" width="100%" x="0" y="240"></rect><rect fill="#006818" height="144" width="100%" x="0" y="352"></rect><rect fill="#101010" height="16" width="100%" x="0" y="496"></rect><rect fill="#006818" height="16" width="100%" x="0" y="512"></rect><rect fill="#101010" height="16" width="100%" x="0" y="528"></rect><rect fill="#006818" height="144" width="100%" x="0" y="544"></rect><rect fill="#101010" height="112" width="100%" x="0" y="688"></rect><rect fill="#E8C000" height="16" width="100%" x="0" y="800"></rect><rect fill="#006818" height="80" width="100%" x="0" y="816"></rect><rect fill="#289C18" height="64" width="100%" x="0" y="896"></rect><rect fill="#FCFCFC" height="32" width="100%" x="0" y="960"></rect><rect fill="#289C18" height="16" width="100%" x="0" y="992"></rect><rect fill="#FCFCFC" height="16" width="100%" x="0" y="1008"></rect></g><g id="vertStripes" mask="url(#grating)"><rect fill="#006818" height="100%" width="16" x="0" y="0"></rect><rect fill="#FCFCFC" height="100%" width="16" x="16" y="0"></rect><rect fill="#289C18" height="100%" width="16" x="32" y="0"></rect><rect fill="#FCFCFC" height="100%" width="32" x="48" y="0"></rect><rect fill="#289C18" height="100%" width="64" x="80" y="0"></rect><rect fill="#006818" height="100%" width="80" x="144" y="0"></rect><rect fill="#E8C000" height="100%" width="16" x="224" y="0"></rect><rect fill="#101010" height="100%" width="112" x="240" y="0"></rect><rect fill="#006818" height="100%" width="144" x="352" y="0"></rect><rect fill="#101010" height="100%" width="16" x="496" y="0"></rect><rect fill="#006818" height="100%" width="16" x="512" y="0"></rect><rect fill="#101010" height="100%" width="16" x="528" y="0"></rect><rect fill="#006818" height="100%" width="144" x="544" y="0"></rect><rect fill="#101010" height="100%" width="112" x="688" y="0"></rect><rect fill="#E8C000" height="100%" width="16" x="800" y="0"></rect><rect fill="#006818" height="100%" width="80" x="816" y="0"></rect><rect fill="#289C18" height="100%" width="64" x="896" y="0"></rect><rect fill="#FCFCFC" height="100%" width="32" x="960" y="0"></rect><rect fill="#289C18" height="100%" width="16" x="992" y="0"></rect><rect fill="#FCFCFC" height="100%" width="16" x="1008" y="0"></rect></g></svg>